<svg width="39" height="12" viewBox="0 0 39 12" fill="none" xmlns="http://www.w3.org/2000/svg">
<path d="M0.880682 2.72727H1.93182L4.40341 8.7642H4.48864L6.96023 2.72727H8.01136V10H7.1875V4.47443H7.11648L4.84375 10H4.0483L1.77557 4.47443H1.70455V10H0.880682V2.72727ZM11.8794 10.1136C11.387 10.1136 10.955 9.99645 10.5833 9.76207C10.214 9.5277 9.92513 9.19981 9.7168 8.77841C9.51083 8.35701 9.40785 7.86458 9.40785 7.30114C9.40785 6.73295 9.51083 6.23698 9.7168 5.81321C9.92513 5.38944 10.214 5.06037 10.5833 4.82599C10.955 4.59162 11.387 4.47443 11.8794 4.47443C12.3719 4.47443 12.8027 4.59162 13.1721 4.82599C13.5437 5.06037 13.8326 5.38944 14.0385 5.81321C14.2469 6.23698 14.351 6.73295 14.351 7.30114C14.351 7.86458 14.2469 8.35701 14.0385 8.77841C13.8326 9.19981 13.5437 9.5277 13.1721 9.76207C12.8027 9.99645 12.3719 10.1136 11.8794 10.1136ZM11.8794 9.3608C12.2535 9.3608 12.5613 9.26491 12.8027 9.07315C13.0442 8.88139 13.223 8.62926 13.339 8.31676C13.455 8.00426 13.513 7.66572 13.513 7.30114C13.513 6.93655 13.455 6.59683 13.339 6.28196C13.223 5.96709 13.0442 5.71259 12.8027 5.51847C12.5613 5.32434 12.2535 5.22727 11.8794 5.22727C11.5054 5.22727 11.1976 5.32434 10.9561 5.51847C10.7147 5.71259 10.5359 5.96709 10.4199 6.28196C10.3039 6.59683 10.2459 6.93655 10.2459 7.30114C10.2459 7.66572 10.3039 8.00426 10.4199 8.31676C10.5359 8.62926 10.7147 8.88139 10.9561 9.07315C11.1976 9.26491 11.5054 9.3608 11.8794 9.3608ZM15.6303 10V4.54545H16.44V5.36932H16.4968C16.5962 5.09943 16.7762 4.88045 17.0366 4.71236C17.297 4.54427 17.5906 4.46023 17.9173 4.46023C17.9788 4.46023 18.0558 4.46141 18.1481 4.46378C18.2404 4.46615 18.3103 4.4697 18.3576 4.47443V5.3267C18.3292 5.3196 18.2641 5.30895 18.1623 5.29474C18.0629 5.27817 17.9575 5.26989 17.8462 5.26989C17.5811 5.26989 17.3443 5.32552 17.136 5.43679C16.93 5.54569 16.7667 5.69721 16.646 5.89134C16.5276 6.0831 16.4684 6.30208 16.4684 6.5483V10H15.6303ZM21.4719 10.1136C20.9464 10.1136 20.493 9.99763 20.1119 9.76562C19.7331 9.53125 19.4407 9.20455 19.2347 8.78551C19.0311 8.36411 18.9293 7.87405 18.9293 7.31534C18.9293 6.75663 19.0311 6.2642 19.2347 5.83807C19.4407 5.40956 19.7272 5.07576 20.0941 4.83665C20.4634 4.59517 20.8943 4.47443 21.3867 4.47443C21.6708 4.47443 21.9513 4.52178 22.2283 4.61648C22.5053 4.71117 22.7575 4.86506 22.9847 5.07812C23.212 5.28883 23.3931 5.56818 23.5281 5.91619C23.663 6.2642 23.7305 6.69271 23.7305 7.2017V7.55682H19.5259V6.83239H22.8782C22.8782 6.52462 22.8166 6.25 22.6935 6.00852C22.5728 5.76705 22.4 5.57647 22.1751 5.43679C21.9525 5.29711 21.6897 5.22727 21.3867 5.22727C21.0529 5.22727 20.7641 5.31013 20.5202 5.47585C20.2788 5.6392 20.0929 5.85227 19.9627 6.11506C19.8325 6.37784 19.7674 6.65956 19.7674 6.96023V7.44318C19.7674 7.85511 19.8384 8.20431 19.9805 8.49077C20.1249 8.77486 20.3249 8.99148 20.5806 9.14062C20.8363 9.28741 21.1334 9.3608 21.4719 9.3608C21.6921 9.3608 21.891 9.33002 22.0685 9.26847C22.2485 9.20455 22.4035 9.10985 22.5337 8.98438C22.6639 8.85653 22.7646 8.69792 22.8356 8.50852L23.6452 8.7358C23.56 9.01042 23.4168 9.25189 23.2156 9.46023C23.0143 9.66619 22.7657 9.82718 22.4698 9.94318C22.1739 10.0568 21.8413 10.1136 21.4719 10.1136Z" fill="white"/>
<line x1="28" y1="7.5" x2="38" y2="7.5" stroke="black"/>
<path d="M34 7.5V5L37.5 7.5L34 10V7.5ZM34 7.5H27" stroke="black"/>
</svg>
